# xmcd CD database file
#
# Track frame offsets:
#	150
#	54160
#	88065
#	138103
#	184400
#	254783
#
# Disc length: 4508 seconds
#
# Revision: 0
# Processed by: cddbd v1.5.2PL0 Copyright (c) Steve Scherf et al.
# Submitted via: CDex 1.51
#
DISCID=51119a06
DTITLE=The Thad Jones/Mel Lewis Orchestra - The Thad Jones/Mel Lewis Orchestra In Europe
DYEAR=2006
DGENRE=Jazz
TTITLE0=Sixty First And Richard
TTITLE1=Body And Soul
TTITLE2=Don't Get Sassy
TTITLE3=A Child Is Born
TTITLE4=Fingers
TTITLE5=The Intimacy Of The Blues
EXTD=YEAR: 2006
EXTT0=
EXTT1=
EXTT2=
EXTT3=
EXTT4=
EXTT5=
PLAYORDER=
